<svg width="39" height="39" viewBox="0 0 39 39" fill="none" xmlns="http://www.w3.org/2000/svg">
<path d="M4.36637 32.9706L4.64333 31.3679C4.88122 29.9882 5.84106 28.7889 7.21071 28.1602L13.0414 25.4812C13.7572 25.153 13.9619 24.1151 13.9825 24.0589C14.0457 23.9656 14.1526 23.9093 14.3167 23.9093C14.3216 23.9093 14.3266 23.9093 14.3315 23.9093C14.4712 23.9271 14.5856 24.0217 14.6234 24.1512L15.2962 26.5127L19.5001 34.1416L23.6935 26.538L24.3776 24.1512C24.414 24.0223 24.5288 23.9271 24.7208 23.9058C24.8418 23.9058 24.9529 23.9631 25.0368 24.1045C25.0387 24.1152 25.2412 25.1519 25.959 25.4812L31.7906 28.1602C33.1597 28.7894 34.1193 29.9882 34.3573 31.3679L34.6343 32.9706C34.743 33.5986 34.5883 34.4763 33.9914 34.9198C33.9211 34.9725 33.833 35.0505 33.7214 35.1499C32.6482 36.102 29.3821 38.9998 19.5001 38.9998C9.62002 38.9998 6.35316 36.102 5.27959 35.1499C5.16785 35.0512 5.07941 34.9725 5.00903 34.9198C4.41192 34.4757 4.25729 33.598 4.36637 32.9706Z" fill="#FDF6E8"/>
<path d="M16.7218 9.54684C15.3088 12.1986 13.3737 15.8316 12.5291 16.359L12.3689 16.459L11.7814 11.8721C11.6204 9.85724 12.2682 7.95005 13.6051 6.50172C15.0666 4.91856 17.2153 4.01074 19.5003 4.01074C21.7855 4.01074 23.9343 4.91856 25.3957 6.50172C26.7328 7.94944 27.3807 9.85724 27.2194 11.8769L26.685 16.4176L26.5062 16.2225C26.1375 15.8209 25.473 15.4016 24.6319 14.8706C22.6866 13.6428 19.7629 11.7977 17.4664 8.15769C17.2538 8.548 17.0005 9.02346 16.7218 9.54684Z" fill="#FDF6E8"/>
<path d="M31.2224 18.4858C31.124 18.8956 30.7611 19.1818 30.3402 19.1818C30.2691 19.1818 30.1979 19.1729 30.1281 19.1564L28.5989 18.7891C28.3071 18.7193 28.071 18.5082 27.965 18.2272L27.902 18.2314L27.9307 18.1166C27.8962 17.9724 27.8953 17.831 27.9279 17.695L28.7251 14.3956C28.9163 13.2453 29.0132 12.2618 29.0132 11.4711C29.0132 6.22545 24.7456 1.958 19.5001 1.958C14.2548 1.958 9.98725 6.22545 9.98725 11.4711C9.98725 12.2612 10.0842 13.2453 10.2893 14.4322L11.0726 17.695C11.0841 17.7435 11.0912 17.7925 11.0939 17.844L11.1252 17.9138C11.1355 17.9369 12.1898 20.2167 15.4647 20.8595C15.6347 20.5455 15.9626 20.3473 16.3251 20.3473H18.2983C18.838 20.3473 19.2772 20.7868 19.2772 21.3267V22.0985C19.2772 22.6384 18.838 23.0778 18.2983 23.0778H16.3251C15.9147 23.0778 15.5483 22.8164 15.4086 22.4326C13.4486 22.0967 12.1377 21.2718 11.3802 20.6342C10.5954 19.9742 10.1263 19.2982 9.89607 18.9109L8.87224 19.1563C8.80262 19.1728 8.73133 19.1818 8.66018 19.1818C8.23925 19.1818 7.8766 18.8955 7.77811 18.4857L6.99476 15.2229C6.87814 14.7362 7.17902 14.2454 7.66553 14.1283L8.23103 13.9929C8.09681 13.0383 8.02872 12.1903 8.02872 11.4711C8.02887 5.14632 13.1749 0 19.5001 0C25.8254 0 30.9714 5.14632 30.9714 11.4713C30.9714 12.1904 30.9034 13.0384 30.7691 13.9924L31.3351 14.1284C31.8217 14.2455 32.1224 14.7364 32.0056 15.2231L31.2224 18.4858Z" fill="#FDF6E8"/>
</svg>
