<svg width="29" height="23" viewBox="0 0 29 23" fill="none" xmlns="http://www.w3.org/2000/svg">
<path d="M28.25 1.875V7.375L14.5 12.875L0.75 7.375V1.875C0.75 1.51033 0.894866 1.16059 1.15273 0.902728C1.41059 0.644866 1.76033 0.5 2.125 0.5H26.875C27.2397 0.5 27.5894 0.644866 27.8473 0.902728C28.1051 1.16059 28.25 1.51033 28.25 1.875ZM0.75 10.3367V21.125C0.75 21.4897 0.894866 21.8394 1.15273 22.0973C1.41059 22.3551 1.76033 22.5 2.125 22.5H26.875C27.2397 22.5 27.5894 22.3551 27.8473 22.0973C28.1051 21.8394 28.25 21.4897 28.25 21.125V10.3367L14.5 15.8367L0.75 10.3367Z" fill="#FDF6E8"/>
</svg>
