<svg width="205" height="84" viewBox="0 0 205 84" fill="none" xmlns="http://www.w3.org/2000/svg">
<path d="M2.64205 38V3.09091H17.1989C19.8125 3.09091 22 3.46023 23.7614 4.19886C25.5341 4.9375 26.8636 5.97159 27.75 7.30114C28.6477 8.63068 29.0966 10.1705 29.0966 11.9205C29.0966 13.25 28.8182 14.4375 28.2614 15.483C27.7045 16.517 26.9375 17.375 25.9602 18.0568C24.983 18.7386 23.8523 19.2159 22.5682 19.4886V19.8295C23.9773 19.8977 25.2784 20.2784 26.4716 20.9716C27.6761 21.6648 28.642 22.6307 29.3693 23.8693C30.0966 25.0966 30.4602 26.5511 30.4602 28.233C30.4602 30.108 29.983 31.7841 29.0284 33.2614C28.0739 34.7273 26.6932 35.8864 24.8864 36.7386C23.0795 37.5795 20.8864 38 18.3068 38H2.64205ZM11.0795 31.1989H16.2955C18.125 31.1989 19.4716 30.8523 20.3352 30.1591C21.2102 29.4659 21.6477 28.5 21.6477 27.2614C21.6477 26.3636 21.4375 25.5909 21.017 24.9432C20.5966 24.2841 20 23.7784 19.2273 23.4261C18.4545 23.0625 17.5284 22.8807 16.4489 22.8807H11.0795V31.1989ZM11.0795 17.4432H15.75C16.6705 17.4432 17.4886 17.2898 18.2045 16.983C18.9205 16.6761 19.4773 16.233 19.875 15.6534C20.2841 15.0739 20.4886 14.375 20.4886 13.5568C20.4886 12.3864 20.0739 11.4659 19.2443 10.7955C18.4148 10.125 17.2955 9.78977 15.8864 9.78977H11.0795V17.4432ZM55.6364 3.09091H64.0568V25.608C64.0568 28.2102 63.4375 30.4773 62.1989 32.4091C60.9602 34.3295 59.233 35.8182 57.017 36.875C54.8011 37.9205 52.2273 38.4432 49.2955 38.4432C46.3295 38.4432 43.7386 37.9205 41.5227 36.875C39.3068 35.8182 37.5852 34.3295 36.358 32.4091C35.1307 30.4773 34.517 28.2102 34.517 25.608V3.09091H42.9545V24.875C42.9545 26.0795 43.2159 27.1534 43.7386 28.0966C44.2727 29.0398 45.017 29.7784 45.9716 30.3125C46.9261 30.8466 48.0341 31.1136 49.2955 31.1136C50.5568 31.1136 51.6591 30.8466 52.6023 30.3125C53.5568 29.7784 54.3011 29.0398 54.8352 28.0966C55.3693 27.1534 55.6364 26.0795 55.6364 24.875V3.09091ZM82.2486 38H69.3452V3.09091H82.2315C85.7884 3.09091 88.8509 3.78977 91.419 5.1875C93.9986 6.57386 95.9872 8.57386 97.3849 11.1875C98.7827 13.7898 99.4815 16.9034 99.4815 20.5284C99.4815 24.1648 98.7827 27.2898 97.3849 29.9034C95.9986 32.517 94.0156 34.5227 91.4361 35.9205C88.8565 37.3068 85.794 38 82.2486 38ZM77.7827 30.8068H81.9247C83.8793 30.8068 85.5327 30.4773 86.8849 29.8182C88.2486 29.1477 89.277 28.0625 89.9702 26.5625C90.6747 25.0511 91.027 23.0398 91.027 20.5284C91.027 18.017 90.6747 16.017 89.9702 14.5284C89.2656 13.0284 88.2259 11.9489 86.8509 11.2898C85.4872 10.6193 83.8054 10.2841 81.8054 10.2841H77.7827V30.8068ZM109.896 38H100.828L112.607 3.09091H123.839L135.618 38H126.55L118.351 11.8864H118.078L109.896 38ZM108.686 24.2614H127.641V30.6705H108.686V24.2614Z" fill="#9BDEAC"/>
<path d="M2.64205 80V45.0909H17.0625C19.6761 45.0909 21.9318 45.5625 23.8295 46.5057C25.7386 47.4375 27.2102 48.7784 28.2443 50.5284C29.2784 52.267 29.7955 54.3295 29.7955 56.7159C29.7955 59.1364 29.267 61.1932 28.2102 62.8864C27.1534 64.5682 25.6534 65.8523 23.7102 66.7386C21.767 67.6136 19.4659 68.0511 16.8068 68.0511H7.6875V61.4034H15.2386C16.5114 61.4034 17.5739 61.2386 18.4261 60.9091C19.2898 60.5682 19.9432 60.0568 20.3864 59.375C20.8295 58.6818 21.0511 57.7955 21.0511 56.7159C21.0511 55.6364 20.8295 54.7443 20.3864 54.0398C19.9432 53.3239 19.2898 52.7898 18.4261 52.4375C17.5625 52.0739 16.5 51.892 15.2386 51.892H11.0795V80H2.64205ZM22.2955 64.0455L30.9886 80H21.7841L13.2614 64.0455H22.2955ZM34.4233 80V45.0909H58.7642V51.9432H42.8608V59.1023H57.5199V65.9716H42.8608V73.1477H58.7642V80H34.4233ZM93.7585 45.0909V80H86.5994L72.7074 59.8523H72.4858V80H64.0483V45.0909H71.3097L85.0483 65.2045H85.3381V45.0909H93.7585ZM97.9219 51.9432V45.0909H127.428V51.9432H116.842V80H108.524V51.9432H97.9219Z" fill="#E7305B"/>
<path d="M202.096 70.9292C201.797 71.5082 201.438 72.0871 201.079 72.6216C200.62 73.3341 200.101 74.0022 199.523 74.6479C198.944 75.2937 198.345 75.8504 197.707 76.3848C197.208 76.8079 196.709 77.1864 196.17 77.5205C195.871 77.2755 195.592 77.0083 195.293 76.7188C194.834 76.2512 194.315 75.6945 193.776 75.1155C193.517 74.8483 193.277 74.5811 193.038 74.2694C188.708 69.3482 182.603 61.1759 178.692 55.8094C179.43 55.1191 180.109 54.4288 180.747 53.694C181.405 52.9591 182.044 52.1798 182.623 51.4004C187.431 55.7426 194.774 62.5788 199.143 67.4109C199.403 67.6781 199.682 67.9676 199.902 68.2571C200.44 68.8583 200.919 69.4373 201.338 69.9494C201.618 70.2834 201.837 70.5951 202.056 70.9068L202.057 70.9069L202.096 70.9292ZM203.673 73.4232C203.493 73.7125 203.294 74.0241 203.094 74.3356L203.094 74.3362C202.575 75.1378 201.957 75.9172 201.318 76.652C200.68 77.3646 199.961 78.0549 199.203 78.6561C199.063 78.7866 198.909 78.9095 198.753 79.0338C198.643 79.1214 198.532 79.2097 198.425 79.3019C202.515 81.974 204.491 80.2149 204.491 80.2149C204.491 80.2149 206.067 78.0103 203.673 73.4455V73.4232Z" fill="#9BDEAC"/>
<path d="M202.096 70.9292C201.797 71.5082 201.438 72.0871 201.079 72.6216C200.62 73.3341 200.101 74.0022 199.523 74.6479C198.944 75.2937 198.345 75.8504 197.707 76.3848C197.208 76.8079 196.709 77.1864 196.17 77.5205C195.871 77.2755 195.592 77.0083 195.293 76.7188C194.834 76.2512 194.315 75.6945 193.776 75.1155C193.517 74.8483 193.277 74.5811 193.038 74.2694C188.708 69.3482 182.603 61.1759 178.692 55.8094C179.43 55.1191 180.109 54.4288 180.747 53.694C181.405 52.9591 182.044 52.1798 182.623 51.4004C187.431 55.7426 194.774 62.5788 199.143 67.4109C199.403 67.6781 199.682 67.9676 199.902 68.2571C200.44 68.8583 200.919 69.4373 201.338 69.9494C201.618 70.2834 201.837 70.5951 202.056 70.9068L202.057 70.9069L202.096 70.9292ZM203.673 73.4232C203.493 73.7125 203.294 74.0241 203.094 74.3356L203.094 74.3362C202.575 75.1378 201.957 75.9172 201.318 76.652C200.68 77.3646 199.961 78.0549 199.203 78.6561C199.063 78.7866 198.909 78.9095 198.753 79.0338C198.643 79.1214 198.532 79.2097 198.425 79.3019C202.515 81.974 204.491 80.2149 204.491 80.2149C204.491 80.2149 206.067 78.0103 203.673 73.4455V73.4232Z" stroke="black"/>
<path d="M188.659 30.1874L182.553 26.246V18.3409H176.468V22.3269L175.809 21.9038L168.626 17.2721L161.104 21.1689L144.843 29.6752C144.663 30.9445 144.563 32.2806 144.563 33.5943C144.563 35.0863 144.683 36.5782 144.923 38.0034L168.307 25.8452L188.38 38.7605C188.918 35.9547 189.018 33.0377 188.659 30.1874Z" fill="#9BDEAC"/>
<path d="M166.791 35.2422H163.419V39.3172H166.791V35.2422Z" fill="#9BDEAC"/>
<path d="M172.018 35.2199H168.646V39.2949H172.018V35.2199Z" fill="#9BDEAC"/>
<path d="M166.791 41.3881H163.419V45.4631H166.791V41.3881Z" fill="#9BDEAC"/>
<path d="M172.018 41.3881H168.646V45.4631H172.018V41.3881Z" fill="#9BDEAC"/>
<circle cx="166.929" cy="33.9291" r="24.9291" stroke="#E7305B" stroke-width="10"/>
</svg>
