<svg width="81" height="86" viewBox="0 0 81 86" fill="none" xmlns="http://www.w3.org/2000/svg">
<path d="M80.9169 43C80.9169 34.5943 78.5465 26.3774 74.1054 19.3883C69.6644 12.3992 63.3522 6.95186 55.967 3.73514C48.5818 0.518415 40.4554 -0.323227 32.6153 1.31664C24.7752 2.95652 17.5737 7.00425 11.9213 12.948C6.26891 18.8917 2.4196 26.4645 0.860109 34.7087C-0.699377 42.9529 0.101008 51.4982 3.16005 59.2641C6.21909 67.0299 11.3994 73.6675 18.0459 78.3375C24.6924 83.0074 32.5065 85.5 40.5002 85.5C45.8078 85.5 51.0634 84.4007 55.967 82.2649C60.8706 80.1291 65.3261 76.9986 69.0791 73.0521C72.8321 69.1056 75.8092 64.4204 77.8403 59.2641C79.8714 54.1077 80.9169 48.5812 80.9169 43ZM32.9827 58.6825L21.4235 45.9325C21.2525 45.7481 21.1154 45.532 21.0194 45.295C20.8477 45.0951 20.7109 44.8649 20.6152 44.615C20.4014 44.1063 20.2909 43.5562 20.2909 43C20.2909 42.4438 20.4014 41.8937 20.6152 41.385C20.8075 40.8633 21.096 40.3867 21.4639 39.9825L33.5889 27.2325C34.35 26.4322 35.3822 25.9826 36.4585 25.9826C37.5348 25.9826 38.567 26.4322 39.3281 27.2325C40.0892 28.0328 40.5167 29.1182 40.5167 30.25C40.5167 31.3818 40.0892 32.4672 39.3281 33.2675L34.0739 38.75H56.6669C57.7388 38.75 58.7668 39.1978 59.5247 39.9948C60.2827 40.7918 60.7085 41.8728 60.7085 43C60.7085 44.1272 60.2827 45.2082 59.5247 46.0052C58.7668 46.8022 57.7388 47.25 56.6669 47.25H33.791L38.8431 52.8175C39.2093 53.2222 39.4962 53.6987 39.6873 54.2199C39.8784 54.7411 39.9699 55.2968 39.9568 55.8552C39.9437 56.4136 39.8261 56.9639 39.6107 57.4745C39.3953 57.9851 39.0864 58.4462 38.7016 58.8313C38.3168 59.2164 37.8637 59.518 37.368 59.7189C36.8724 59.9199 36.3439 60.0162 35.8129 60.0024C35.2818 59.9886 34.7585 59.8649 34.2729 59.6384C33.7873 59.412 33.3489 59.0872 32.9827 58.6825Z" fill="white"/>
</svg>
